<svg width="328" height="80" fill="none" xmlns="http://www.w3.org/2000/svg"><path d="M268.569 78.634c.899 0 1.628-.73 1.628-1.63V65.597l6.144-6.469 10.715 17.92a3.256 3.256 0 0 0 2.794 1.586h14.542a1.222 1.222 0 0 0 1.045-1.853l-17.84-29.646 17.619-18.533c.74-.778.189-2.065-.884-2.065h-15.808c-.922 0-1.8.391-2.417 1.077l-15.91 17.663V1.63c0-.9-.729-1.63-1.628-1.63h-12.786c-.899 0-1.628.73-1.628 1.63v75.374c0 .9.729 1.63 1.628 1.63h12.786Z" fill="url(#a)"/><path d="M236.641 18.39a9.049 9.049 0 0 1-6.512-2.656 9.073 9.073 0 0 1-2.652-6.519 8.716 8.716 0 0 1 2.653-6.47A8.949 8.949 0 0 1 236.641.14a8.813 8.813 0 0 1 6.405 2.607 8.691 8.691 0 0 1 2.661 6.47 8.864 8.864 0 0 1-2.661 6.517 8.713 8.713 0 0 1-6.405 2.656Z" fill="url(#b)"/><path d="M230.349 78.683c-.899 0-1.627-.73-1.627-1.63V28.167c0-.9.728-1.63 1.627-1.63h12.795c.898 0 1.627.73 1.627 1.63v48.886c0 .9-.729 1.63-1.627 1.63h-12.795Z" fill="url(#c)"/><path d="M38.866 62.15c-.881 0-1.611.704-1.548 1.584a15.869 15.869 0 0 0 5.972 11.298c4.026 3.303 9.479 4.954 16.358 4.954a31.341 31.341 0 0 0 11.98-2.135 18.2 18.2 0 0 0 8.14-6.208 16.022 16.022 0 0 0 2.921-9.59c.006-4.177-1.123-7.36-3.386-9.55-2.262-2.188-5.545-3.733-9.847-4.635l-9.686-2.086c-3.749-.836-5.623-2.366-5.623-4.587a4.144 4.144 0 0 1 1.627-3.39 6.652 6.652 0 0 1 4.322-1.303 5.495 5.495 0 0 1 4.418 1.547 5.508 5.508 0 0 1 1.493 2.633c.225.927.954 1.76 1.906 1.76h11.851c.885 0 1.615-.709 1.55-1.591a16.463 16.463 0 0 0-2.564-7.69 17.259 17.259 0 0 0-7.235-6.151 24.759 24.759 0 0 0-10.686-2.192 28.767 28.767 0 0 0-11.15 2.037 18.143 18.143 0 0 0-7.757 5.834 14.915 14.915 0 0 0-2.864 9.231c0 4.59 1.18 8.05 3.54 10.38 2.36 2.33 5.936 4.017 10.727 5.06l9.587 2.086c1.945.415 3.207 1.002 3.8 1.768a3.658 3.658 0 0 1 .263 4.445c-.3.442-.692.813-1.15 1.087-1.247.831-3.087 1.247-5.517 1.247-2.431 0-4.306-.522-5.624-1.565a5.703 5.703 0 0 1-1.916-2.738c-.27-.833-.965-1.54-1.84-1.54H38.866Z" fill="url(#d)"/><path d="M178.615 62.15c-.881 0-1.611.704-1.548 1.584a15.843 15.843 0 0 0 5.989 11.306c4.02 3.303 9.47 4.954 16.35 4.954a31.338 31.338 0 0 0 11.98-2.134 18.224 18.224 0 0 0 8.139-6.209 16.08 16.08 0 0 0 2.914-9.59c0-4.177-1.129-7.36-3.386-9.549-2.257-2.189-5.54-3.734-9.848-4.636l-9.685-2.086c-3.749-.836-5.624-2.365-5.624-4.587a4.144 4.144 0 0 1 1.628-3.39 6.652 6.652 0 0 1 4.322-1.303 5.494 5.494 0 0 1 4.417 1.547 5.508 5.508 0 0 1 1.494 2.633c.225.927.953 1.76 1.906 1.76h11.818c.885 0 1.616-.708 1.551-1.591a16.459 16.459 0 0 0-2.565-7.69 17.212 17.212 0 0 0-7.235-6.151 24.761 24.761 0 0 0-10.678-2.192 28.766 28.766 0 0 0-11.15 2.037 18.136 18.136 0 0 0-7.756 5.834 14.915 14.915 0 0 0-2.865 9.231c0 4.59 1.18 8.05 3.54 10.38 2.36 2.33 5.936 4.017 10.727 5.06l9.587 2.086c1.945.415 3.207 1.002 3.801 1.768.547.643.86 1.453.887 2.298a3.824 3.824 0 0 1-1.774 3.259c-1.248.83-3.087 1.246-5.518 1.246-2.431 0-4.305-.521-5.624-1.564a5.76 5.76 0 0 1-1.899-2.763c-.265-.837-.962-1.547-1.839-1.547h-12.056Z" fill="url(#e)"/><path d="M318.931 18.39a9.055 9.055 0 0 1-8.495-5.647 9.072 9.072 0 0 1-.669-3.528 8.733 8.733 0 0 1 2.653-6.47A8.949 8.949 0 0 1 318.931.14a8.83 8.83 0 0 1 6.413 2.607 8.734 8.734 0 0 1 2.654 6.47 8.888 8.888 0 0 1-2.654 6.518 8.717 8.717 0 0 1-6.413 2.655Z" fill="url(#f)"/><path d="M312.648 78.683c-.899 0-1.628-.73-1.628-1.63V28.167c0-.9.729-1.63 1.628-1.63h12.794c.899 0 1.628.73 1.628 1.63v48.886c0 .9-.729 1.63-1.628 1.63h-12.794Z" fill="url(#g)"/><path d="M141.377 26.488h8.269V11.953c0-.9.729-1.63 1.628-1.63h12.786c.899 0 1.628.73 1.628 1.63v14.535h8.244c.899 0 1.628.73 1.628 1.63v10.087c0 .9-.729 1.63-1.628 1.63h-8.244v37.17c0 .9-.729 1.629-1.628 1.629h-12.786c-.899 0-1.628-.73-1.628-1.63v-37.17h-8.269c-.899 0-1.627-.73-1.627-1.63V28.119c0-.9.728-1.63 1.627-1.63Z" fill="url(#h)"/><path d="M9.897 26.488h-8.27c-.898 0-1.627.73-1.627 1.63v10.087c0 .9.729 1.63 1.628 1.63h8.269v37.17c0 .9.728 1.629 1.627 1.629H24.31c.9 0 1.628-.73 1.628-1.63v-37.17h8.244c.9 0 1.628-.73 1.628-1.63V28.119c0-.9-.729-1.63-1.628-1.63h-8.244V11.953c0-.9-.729-1.63-1.628-1.63H11.524c-.899 0-1.627.73-1.627 1.63v14.535Z" fill="url(#i)"/><path fill-rule="evenodd" clip-rule="evenodd" d="M104.761 79.986c-5.49 0-9.85-1.513-13.079-4.538-3.228-3.026-4.842-7.075-4.842-12.148 0-4.797 1.65-8.62 4.948-11.472 3.3-2.852 8.074-4.52 14.324-5.003l14.585-1.149v-.815a8.285 8.285 0 0 0-1.042-4.334 6.641 6.641 0 0 0-2.971-2.608 11.665 11.665 0 0 0-4.842-.88c-3.402 0-5.99.62-7.764 1.874a6.244 6.244 0 0 0-2.504 3.727c-.208.908-.929 1.7-1.86 1.7H89.682c-.884 0-1.614-.707-1.556-1.59a17.716 17.716 0 0 1 2.987-8.741 19.487 19.487 0 0 1 8.594-6.78 32.58 32.58 0 0 1 12.965-2.395c5.073 0 9.362.905 12.867 2.713a18.408 18.408 0 0 1 8.025 7.928c1.839 3.471 2.759 7.71 2.759 12.719V77.02c0 .9-.729 1.63-1.628 1.63h-11.142a1.629 1.629 0 0 1-1.609-1.386l-.832-5.499c-.83 2.363-2.792 4.326-5.884 5.89a22.87 22.87 0 0 1-10.467 2.331Zm16.524-20.584c.124-.77.239-1.93.197-2.841-.046-.61-.579-.745-.996-.436-1.472 1.14-3.072 1.01-4.479.794-.628-.096-1.328-.286-2.042-.48-.745-.202-1.507-.409-2.22-.518-4.177-.64-7.475.938-8.153 5.16-.061.38-.099.782-.095 1.04.002.32.33.511.668.297 2.237-1.48 4.245-1.365 6.147-1.256 1.778.102 3.462.2 5.151-1.02.336-.25.609.058.448.334-1.128 1.928-3.209 1.996-5.571 2.072-2.081.068-4.381.142-6.437 1.505-1.035.702-3.099 2.513-3.29 3.707-.123.76.304 1.393.951 1.492.306.047.618-.056.815-.45.694-1.366 1.29-2.4 2.184-3.283.67 1.069 2.212 2.67 5.166 3.122 5.942.91 10.517-2.768 11.556-9.239Z" fill="url(#j)"/><defs><linearGradient id="a" x1="164" y1="0" x2="164" y2="80" gradientUnits="userSpaceOnUse"><stop stop-color="#3B4"/><stop offset="1" stop-color="#8C1"/></linearGradient><linearGradient id="b" x1="164" y1="0" x2="164" y2="80" gradientUnits="userSpaceOnUse"><stop stop-color="#3B4"/><stop offset="1" stop-color="#8C1"/></linearGradient><linearGradient id="c" x1="164" y1="0" x2="164" y2="80" gradientUnits="userSpaceOnUse"><stop stop-color="#3B4"/><stop offset="1" stop-color="#8C1"/></linearGradient><linearGradient id="d" x1="164" y1="0" x2="164" y2="80" gradientUnits="userSpaceOnUse"><stop stop-color="#3B4"/><stop offset="1" stop-color="#8C1"/></linearGradient><linearGradient id="e" x1="164" y1="0" x2="164" y2="80" gradientUnits="userSpaceOnUse"><stop stop-color="#3B4"/><stop offset="1" stop-color="#8C1"/></linearGradient><linearGradient id="f" x1="164" y1="0" x2="164" y2="80" gradientUnits="userSpaceOnUse"><stop stop-color="#3B4"/><stop offset="1" stop-color="#8C1"/></linearGradient><linearGradient id="g" x1="164" y1="0" x2="164" y2="80" gradientUnits="userSpaceOnUse"><stop stop-color="#3B4"/><stop offset="1" stop-color="#8C1"/></linearGradient><linearGradient id="h" x1="164" y1="0" x2="164" y2="80" gradientUnits="userSpaceOnUse"><stop stop-color="#3B4"/><stop offset="1" stop-color="#8C1"/></linearGradient><linearGradient id="i" x1="164" y1="0" x2="164" y2="80" gradientUnits="userSpaceOnUse"><stop stop-color="#3B4"/><stop offset="1" stop-color="#8C1"/></linearGradient><linearGradient id="j" x1="164" y1="0" x2="164" y2="80" gradientUnits="userSpaceOnUse"><stop stop-color="#3B4"/><stop offset="1" stop-color="#8C1"/></linearGradient></defs></svg>